<svg width="100" height="20" viewBox="0 0 100 20" fill="none" xmlns="http://www.w3.org/2000/svg">
<path fill-rule="evenodd" clip-rule="evenodd" d="M39.2842 16.6133C38.3288 16.6133 37.7773 15.736 37.7166 15.0466V15.0449C36.8111 16.2444 34.9823 16.8957 33.3047 16.8957C29.4911 16.8957 26.3999 13.8015 26.3999 9.98466C26.3999 6.16801 29.4911 3.07423 33.3047 3.07423C34.9823 3.07423 36.6556 3.61713 37.7166 4.92516V3.9263H37.7191C37.7304 3.71923 37.9017 3.55334 38.1111 3.55334H39.8431C40.0524 3.55334 40.2237 3.71923 40.2351 3.9263H40.2371V16.2189C40.2371 16.4357 40.0598 16.6133 39.8431 16.6133H39.2842ZM28.9199 9.98466C28.9199 12.4658 30.8864 14.4768 33.3116 14.4768C35.7368 14.4768 37.7028 12.4658 37.7028 9.98466C37.7028 7.50398 35.7368 5.49284 33.3116 5.49284C30.8864 5.49284 28.9199 7.50398 28.9199 9.98466Z" fill="#0D0E10"/>
<path d="M44.3752 13.2862C45.5315 14.0878 46.7934 14.4771 48.0065 14.4771C49.1618 14.4771 50.3561 13.8777 50.3561 12.8343C50.3561 11.7778 48.8592 11.3979 47.4224 11.0334C46.9647 10.9173 46.513 10.8027 46.118 10.6683C44.4823 10.1121 43.0737 8.9623 43.0737 7.10026C43.0737 4.25103 45.6105 3.07423 47.9784 3.07423C49.4783 3.07423 51.0266 3.56929 52.0299 4.27848C52.3755 4.54055 52.1652 4.84142 52.1652 4.84142L51.2073 6.21062C51.0997 6.36481 50.9111 6.49807 50.641 6.33114C50.6223 6.31959 50.6 6.30561 50.5754 6.28962C50.2372 6.07455 49.3228 5.49294 47.9784 5.49294C46.5337 5.49294 45.6633 6.16056 45.6633 6.98809C45.6633 7.98043 46.7944 8.29256 48.1191 8.63076C50.4277 9.2535 52.9462 10.002 52.9462 12.8343C52.9462 15.3447 50.5996 16.8961 48.0065 16.8961C46.041 16.8961 44.3682 16.3354 42.9646 15.3049C42.6723 15.0122 42.8767 14.7404 42.8767 14.7404L43.8301 13.3781C44.0236 13.1234 44.2685 13.2122 44.3752 13.2862Z" fill="#0D0E10"/>
<path fill-rule="evenodd" clip-rule="evenodd" d="M97.4795 15.0466C97.5403 15.736 98.0918 16.6133 99.0471 16.6133H99.606C99.8228 16.6133 100 16.4357 100 16.2189V3.9263H99.9975C99.9862 3.71923 99.8154 3.55334 99.606 3.55334H97.874C97.6647 3.55334 97.4934 3.71923 97.482 3.9263H97.4795V4.92516C96.4185 3.61713 94.7453 3.07423 93.0676 3.07423C89.2541 3.07423 86.1629 6.16801 86.1629 9.98466C86.1629 13.8015 89.2541 16.8953 93.0676 16.8953C94.7453 16.8953 96.574 16.2444 97.4795 15.0449V15.0466ZM93.0745 14.4768C90.6488 14.4768 88.6828 12.4658 88.6828 9.98466C88.6828 7.50398 90.6488 5.49284 93.0745 5.49284C95.4997 5.49284 97.4657 7.50398 97.4657 9.98466C97.4657 12.4658 95.4997 14.4768 93.0745 14.4768Z" fill="#0D0E10"/>
<path d="M83.9733 9.10878C83.9733 5.52315 81.713 3.10424 78.1088 3.10424C76.3882 3.10424 74.9776 4.09994 74.4794 4.95527C74.3718 4.28647 74.0168 3.5835 72.9163 3.5835H72.3559C72.1387 3.5835 71.9614 3.76119 71.9614 3.97803V16.2716H71.9639C71.9752 16.4785 72.1466 16.6446 72.3559 16.6446H74.0879C74.1146 16.6446 74.1402 16.6413 74.1654 16.6365C74.1728 16.635 74.1797 16.6327 74.1871 16.6303C74.1911 16.629 74.195 16.6277 74.199 16.6265C74.2024 16.6254 74.2064 16.6243 74.2103 16.6232C74.2197 16.6207 74.2286 16.6181 74.2375 16.6145C74.2494 16.6096 74.2607 16.6032 74.2716 16.5969L74.2809 16.5916C74.2844 16.5897 74.2874 16.588 74.2903 16.5864C74.2928 16.5852 74.2953 16.584 74.2972 16.5827C74.2992 16.5817 74.3022 16.5796 74.3022 16.5796C74.3195 16.5686 74.3353 16.5551 74.3506 16.5415C74.353 16.5389 74.356 16.5373 74.359 16.535C74.3757 16.5183 74.3915 16.4998 74.4059 16.4807C74.4488 16.4211 74.4755 16.3492 74.4799 16.2716H74.4819V9.01013C74.4819 7.08441 76.0421 5.52315 77.9666 5.52315C79.8906 5.52315 81.4508 7.08441 81.4508 9.01013L81.4528 15.0798V15.0777C81.4528 15.0803 81.4533 15.083 81.4533 15.0857C81.4538 15.0885 81.4538 15.0914 81.4538 15.0944V16.2716H81.4563C81.4676 16.4785 81.6384 16.6446 81.8483 16.6446H83.5803C83.6069 16.6446 83.6326 16.6413 83.6578 16.6365C83.6681 16.6345 83.6775 16.6304 83.6874 16.6277L83.6973 16.625C83.7081 16.6218 83.719 16.6187 83.7299 16.6145L83.7343 16.6127C83.7383 16.6107 83.7427 16.6086 83.7466 16.6062C83.7516 16.6038 83.756 16.6012 83.7605 16.5986L83.7703 16.593L83.7743 16.5908L83.7797 16.588C83.7852 16.5855 83.7901 16.5829 83.795 16.5796C83.8108 16.5693 83.8256 16.5566 83.84 16.5439L83.8419 16.5422L83.8479 16.5375L83.8513 16.5346C83.8676 16.5188 83.8824 16.5017 83.8958 16.4837L83.8967 16.4824L83.8972 16.4813L83.8987 16.4799C83.9412 16.4209 83.9674 16.3497 83.9718 16.2728L83.9723 16.2716H83.9743L83.9733 9.10878Z" fill="#0D0E10"/>
<path fill-rule="evenodd" clip-rule="evenodd" d="M67.5022 16.6138C66.5473 16.6138 65.9959 15.7364 65.9351 15.047V15.0455C65.0291 16.2449 63.2009 16.8962 61.5232 16.8962C57.7097 16.8962 54.618 13.802 54.618 9.98516C54.618 6.16851 57.7097 3.07473 61.5232 3.07473C63.2009 3.07473 64.8736 3.61764 65.9351 4.92566V3.9268H65.9371C65.949 3.71974 66.1198 3.55384 66.3291 3.55384H68.0611C68.2704 3.55384 68.4418 3.71974 68.4531 3.9268H68.4551V16.2194C68.4551 16.4362 68.2778 16.6138 68.0611 16.6138H67.5022ZM57.1384 9.98516C57.1384 12.4663 59.1044 14.4773 61.5296 14.4773C63.9553 14.4773 65.9213 12.4663 65.9213 9.98516C65.9213 7.50444 63.9553 5.49335 61.5296 5.49335C59.1044 5.49335 57.1384 7.50444 57.1384 9.98516Z" fill="#0D0E10"/>
<path fill-rule="evenodd" clip-rule="evenodd" d="M16.7198 10.4553C14.1534 10.4553 12.073 12.5357 12.073 15.1022C12.073 17.6686 14.1534 19.749 16.7198 19.749C19.2862 19.749 21.3666 17.6686 21.3666 15.1022C21.3666 12.5357 19.2862 10.4553 16.7198 10.4553ZM4.64684 10.4557C2.08046 10.4557 0 12.5357 0 15.1022C0 17.6686 2.08046 19.749 4.64684 19.749C7.21333 19.749 9.29389 17.6686 9.29389 15.1022C9.29389 12.5357 7.21333 10.4557 4.64684 10.4557ZM15.3301 4.64669C15.3301 7.21323 13.2497 9.29388 10.6833 9.29388C8.11685 9.29388 6.03643 7.21323 6.03643 4.64669C6.03643 2.08066 8.11685 0 10.6833 0C13.2497 0 15.3301 2.08066 15.3301 4.64669Z" fill="#F06A6A"/>
</svg>
