<svg width="100" height="26" viewBox="0 0 100 26" fill="none" xmlns="http://www.w3.org/2000/svg">
<path d="M99.9765 6.95308L100 6.9271H96.2639L93.9039 15.1061H93.7788L91.0701 6.9271H86.6299L91.9724 20.4248L89.7404 24.5391V24.6382H93.226L99.9765 6.95308Z" fill="black"/>
<path d="M58.5558 6.9271H54.5927V20.3752H58.5558V6.9271Z" fill="black"/>
<path d="M85.8507 17.012V11.3933C85.8507 8.33239 84.0439 6.65081 80.858 6.65081C78.8244 6.65081 77.4214 7.00272 74.8613 7.77978L75.5628 10.8666C77.8962 9.81326 78.9236 9.36213 80.0029 9.36213C81.3066 9.36213 81.8853 10.2903 81.8853 11.7215V11.8208C77.3436 12.6734 75.9383 13.1504 75.062 14.0291C74.4102 14.6809 74.1339 15.6091 74.1339 16.6884C74.1339 19.2723 76.1414 20.6516 78.0214 20.6516C79.4267 20.6516 80.5556 20.1248 82.086 18.9699L82.3624 20.3752H86.3255L85.8507 17.012ZM81.8877 17.1136C80.8343 17.6898 80.232 17.9166 79.5306 17.9166C78.5764 17.9166 77.9742 17.2883 77.9742 16.2869C77.9742 15.9114 78.0498 15.5335 78.3497 15.2335C78.8268 14.7565 79.755 14.4046 81.8877 13.9039V17.1136Z" fill="black"/>
<path d="M68.4137 6.65081C66.9588 6.65081 65.8298 7.20343 64.5498 8.25679V6.92712H60.5866V24.6382H64.5498V20.2477C65.3032 20.4484 66.0047 20.55 66.8572 20.55C70.3952 20.55 73.5813 17.9402 73.5813 13.2993C73.5813 9.13544 71.2739 6.65081 68.4137 6.65081ZM65.9031 18.0654C65.452 18.0654 65.0246 18.0158 64.5474 17.8647V10.5903C65.3765 10.014 66.0519 9.73767 66.9045 9.73767C68.3854 9.73767 69.5638 10.9162 69.5638 13.4267C69.5663 16.6365 67.8351 18.0654 65.9031 18.0654Z" fill="black"/>
<path d="M20.9988 0H4.00559C1.79257 0 0 1.80915 0 4.03863V21.1759C0 23.4055 1.79257 25.2145 4.00559 25.2145H20.9988C23.2117 25.2145 25.002 23.4055 25.002 21.1759V4.03863C25.0044 1.80679 23.2117 0 20.9988 0Z" fill="#1677FF"/>
<path d="M20.5823 15.8334C19.5833 15.4958 18.2395 14.9785 16.7444 14.433C17.6419 12.8576 18.3599 11.065 18.8323 9.11653H13.9031V7.32631H19.94V6.32726H13.9031V3.34199H11.4398C11.0076 3.34199 11.0076 3.77174 11.0076 3.77174V6.32491H4.90231V7.32396H11.0076V9.11417H5.96519V10.1132H15.743C15.3864 11.3555 14.9045 12.5246 14.3353 13.585C11.1635 12.5293 7.7767 11.6744 5.65104 12.201C4.29067 12.5388 3.41438 13.1411 2.89952 13.774C0.537755 16.6719 2.2312 21.0743 7.21927 21.0743C10.1691 21.0743 13.0104 19.4163 15.2116 16.6837C18.4968 18.2756 24.9989 21.0106 24.9989 21.0106V17.1136C24.9989 17.1136 24.1841 17.0474 20.5823 15.8334ZM6.75402 19.3904C2.86412 19.3904 1.71398 16.3012 3.63648 14.6101C4.2788 14.0385 5.45033 13.7599 6.07384 13.6984C8.38363 13.4693 10.5234 14.3574 13.0482 15.5997C11.2745 17.9331 9.0143 19.3904 6.75402 19.3904Z" fill="white"/>
<path d="M40.9685 2.68771H35.6497L29.7051 20.3752H33.3683L34.372 16.9128H40.6686L41.6227 20.3752H46.3133L40.9685 2.68771ZM35.1987 14.0268L37.5558 5.8738H37.6549L39.8868 14.0268H35.1987Z" fill="black"/>
<path d="M51.8797 2.05954H47.9166V20.3729H51.8797V2.05954Z" fill="black"/>
<path d="M54.2899 3.69147C54.2899 4.99527 55.244 5.87381 56.5737 5.87381C57.9034 5.87381 58.8575 4.99527 58.8575 3.69147C58.8575 2.41142 57.9034 1.50925 56.5737 1.50925C55.244 1.50925 54.2899 2.41142 54.2899 3.69147Z" fill="#1677FF"/>
</svg>
