<svg width="100" height="23" viewBox="0 0 100 23" fill="none" xmlns="http://www.w3.org/2000/svg">
<path fill-rule="evenodd" clip-rule="evenodd" d="M35.0038 18.8608C31.7503 21.2614 27.0345 22.5371 22.9757 22.5371C17.5501 22.5648 12.3097 20.5652 8.28165 16.9304C7.97791 16.6559 8.24791 16.2802 8.61462 16.4939C13.0913 19.0528 18.1591 20.3969 23.3154 20.393C27.1687 20.3742 30.9803 19.5944 34.5311 18.0981C35.0823 17.8664 35.5437 18.4626 35.0038 18.8608Z" fill="#FF9900"/>
<path fill-rule="evenodd" clip-rule="evenodd" d="M36.3592 17.3152C35.9433 16.7933 33.6168 17.0632 32.5617 17.187C32.2442 17.2253 32.195 16.9485 32.4806 16.737C34.3412 15.4298 37.3944 15.8078 37.7476 16.2443C38.1007 16.6808 37.6533 19.7451 35.9095 21.194C35.6416 21.419 35.3853 21.2998 35.5044 21.0028C35.896 20.0421 36.7665 17.8485 36.3592 17.3152Z" fill="#FF9900"/>
<path fill-rule="evenodd" clip-rule="evenodd" d="M32.3643 7.51024V6.23903C32.3632 6.19654 32.371 6.15431 32.3868 6.11485C32.4026 6.0754 32.4263 6.03956 32.4563 6.0095C32.4864 5.97944 32.5225 5.95577 32.5619 5.93991C32.6014 5.9241 32.6434 5.91639 32.6859 5.91729H38.3805C38.4233 5.91579 38.4661 5.92301 38.5063 5.93852C38.5465 5.95408 38.583 5.9776 38.6138 6.00769C38.6446 6.03779 38.6687 6.07382 38.6852 6.11358C38.7013 6.15337 38.7096 6.19605 38.7089 6.23903V7.32797C38.7089 7.51024 38.5537 7.74872 38.2794 8.12896L35.3295 12.3385C36.4252 12.3137 37.5794 12.4757 38.5785 13.0359C38.6675 13.0849 38.7423 13.1565 38.7953 13.2433C38.8479 13.3301 38.8772 13.4293 38.8798 13.5309V14.8808C38.8817 14.9317 38.8704 14.9822 38.8475 15.0276C38.8246 15.073 38.7908 15.112 38.7487 15.1409C38.707 15.1698 38.6585 15.1876 38.6078 15.1929C38.5574 15.1982 38.5063 15.1907 38.4594 15.1711C37.5287 14.6908 36.4969 14.4402 35.4502 14.4402C34.403 14.4402 33.3712 14.6908 32.4409 15.1711C32.3943 15.1875 32.3444 15.1924 32.2955 15.1853C32.2471 15.1782 32.2005 15.1594 32.1606 15.1303C32.1208 15.1013 32.0885 15.063 32.0667 15.0188C32.0449 14.9745 32.0344 14.9256 32.0359 14.8764V13.6074C32.0175 13.3018 32.0911 12.9977 32.2474 12.7344L35.6647 7.83194H32.6927C32.6498 7.83348 32.607 7.82627 32.5668 7.81071C32.5266 7.79519 32.4902 7.77164 32.4593 7.74154C32.4289 7.71148 32.4045 7.67545 32.388 7.63566C32.3718 7.59591 32.3635 7.55322 32.3643 7.51024ZM11.5865 15.4433H9.85406C9.77617 15.44 9.70203 15.4089 9.64507 15.3557C9.58811 15.3024 9.55212 15.2306 9.54359 15.1531V6.26154C9.54445 6.21852 9.55385 6.17606 9.57117 6.13668C9.58853 6.09727 9.61351 6.06169 9.64466 6.032C9.67585 6.00228 9.71255 5.97906 9.75276 5.96362C9.79292 5.94818 9.8358 5.94085 9.87882 5.94206H11.492C11.5721 5.94454 11.6484 5.97643 11.7065 6.03163C11.7646 6.08679 11.8004 6.16144 11.807 6.24129V7.40222H11.8385C12.2592 6.27728 13.0511 5.75532 14.1199 5.75532C15.1886 5.75532 15.8815 6.27954 16.3697 7.40222C16.5307 6.97952 16.8009 6.60702 17.1527 6.32271C17.5045 6.03843 17.9254 5.85248 18.3725 5.78387C18.8196 5.7153 19.2768 5.76644 19.6977 5.93217C20.1186 6.09791 20.488 6.37223 20.7683 6.72726C21.3173 7.47646 21.2048 8.56093 21.2048 9.51487V15.1261C21.2024 15.2122 21.1661 15.2939 21.1037 15.3533C21.0413 15.4128 20.9579 15.4451 20.8718 15.4433H19.1394C19.0568 15.4393 18.9787 15.4041 18.9211 15.3448C18.8635 15.2855 18.8305 15.2065 18.8289 15.1238V10.4126C18.8529 9.85713 18.8364 9.30067 18.7794 8.74767C18.6489 8.14921 18.2619 7.98047 17.7602 7.98047C17.535 7.98753 17.3169 8.06061 17.1329 8.19061C16.9489 8.32058 16.8071 8.50179 16.7252 8.71168C16.5475 9.16165 16.5632 9.9086 16.5632 10.4148V15.1261C16.5609 15.2122 16.5245 15.2939 16.4622 15.3533C16.3998 15.4128 16.3164 15.4451 16.2303 15.4433H14.4933C14.4105 15.4399 14.3322 15.4048 14.2745 15.3454C14.2167 15.286 14.1839 15.2067 14.1828 15.1238V10.4126C14.1828 9.42038 14.3449 7.96022 13.1164 7.96022C11.888 7.96022 11.9195 9.38213 11.9195 10.4126V15.1261C11.9171 15.2122 11.8808 15.2939 11.8184 15.3533C11.756 15.4128 11.6726 15.4451 11.5865 15.4433ZM43.6136 5.75306C46.1878 5.75306 47.5802 7.96243 47.5802 10.768C47.5802 13.4792 46.0435 15.6323 43.6136 15.6323C41.0895 15.6323 39.7147 13.4229 39.7147 10.6826C39.7147 7.94222 41.1053 5.75306 43.6136 5.75306ZM43.6294 7.5687C42.3516 7.5687 42.2794 9.30788 42.2794 10.3946C42.2794 11.4813 42.2636 13.7986 43.6294 13.7986C44.9952 13.7986 45.0403 11.929 45.0403 10.7883C45.0685 9.99397 44.9813 9.19971 44.7814 8.43044C44.5699 7.81169 44.1919 7.5687 43.6294 7.5687ZM50.9145 15.4433H49.1869C49.1042 15.4393 49.026 15.4041 48.9686 15.3448C48.9107 15.2855 48.878 15.2065 48.8761 15.1238V6.23231C48.8859 6.15119 48.925 6.07649 48.9866 6.02284C49.0482 5.96918 49.1275 5.94036 49.2094 5.94206H50.8156C50.8874 5.94439 50.9562 5.97005 51.0118 6.01513C51.0674 6.06022 51.1068 6.12226 51.1237 6.1918V7.54173H51.1553C51.6415 6.32455 52.3186 5.74183 53.5156 5.74183C53.9154 5.72267 54.3133 5.80957 54.6691 5.99368C55.0246 6.17779 55.3252 6.4526 55.5405 6.79027C55.9906 7.50122 55.9906 8.7004 55.9906 9.55985V15.1666C55.9782 15.2437 55.9387 15.3139 55.8794 15.3646C55.82 15.4153 55.7445 15.4432 55.6663 15.4433H53.9293C53.8538 15.4399 53.7813 15.4102 53.7253 15.3593C53.6689 15.3084 53.6321 15.2394 53.6212 15.1643V10.3383C53.6212 9.36413 53.7339 7.94222 52.5369 7.94222C52.3189 7.95093 52.1085 8.02281 51.9308 8.14902C51.7531 8.27523 51.6156 8.45039 51.5355 8.65317C51.3225 9.18821 51.2289 9.76331 51.2613 10.3383V15.1261C51.2594 15.1697 51.2489 15.2126 51.2308 15.2522C51.2124 15.2918 51.1861 15.3274 51.1542 15.3569C51.1219 15.3864 51.0839 15.4092 51.043 15.4241C51.002 15.4389 50.9584 15.4454 50.9145 15.4433ZM27.8217 11.2C27.8217 11.875 27.8375 12.4375 27.4977 13.0359C27.3868 13.2626 27.2169 13.4553 27.0059 13.5938C26.7949 13.7323 26.5506 13.8116 26.2985 13.8234C25.6236 13.8234 25.2456 13.3172 25.2456 12.5657C25.2456 11.092 26.5708 10.822 27.824 10.822V11.1978L27.8217 11.2ZM29.5676 15.423C29.5117 15.4708 29.4425 15.5003 29.3693 15.5076C29.296 15.5148 29.2224 15.4995 29.1582 15.4635C28.7621 15.1444 28.4267 14.7565 28.1682 14.3184C27.2165 15.2881 26.5438 15.5783 25.3108 15.5783C23.8529 15.5783 22.7167 14.6783 22.7167 12.8784C22.6957 12.273 22.8621 11.6759 23.1931 11.1685C23.5241 10.6612 24.0036 10.2683 24.5661 10.0436C25.5066 9.63188 26.816 9.55538 27.824 9.44288V9.2179C27.824 8.80617 27.8577 8.31795 27.6125 7.96022C27.4988 7.81237 27.351 7.69427 27.1817 7.6159C27.0125 7.53756 26.8268 7.5013 26.6405 7.51024C25.979 7.51024 25.3918 7.84772 25.2478 8.54966C25.2384 8.62792 25.2039 8.70104 25.1496 8.75819C25.0953 8.81534 25.024 8.85344 24.9464 8.86689L23.2679 8.69368C23.2266 8.688 23.1869 8.67399 23.1513 8.65242C23.1156 8.63089 23.0846 8.60226 23.0604 8.56833C23.0362 8.53444 23.0192 8.49593 23.0104 8.45516C23.0015 8.41443 23.0012 8.37232 23.0092 8.33144C23.3962 6.29302 25.2366 5.67882 26.8835 5.67882C27.7272 5.67882 28.8297 5.90381 29.4934 6.54277C30.3371 7.33023 30.2561 8.38092 30.2561 9.52385V12.2237C30.2561 13.0337 30.5936 13.3914 30.9108 13.8279C30.9686 13.8886 31.0008 13.9691 31.0008 14.0529C31.0008 14.1367 30.9686 14.2172 30.9108 14.2779C30.5576 14.5749 29.9276 15.1216 29.5811 15.4298L29.5676 15.423ZM5.10903 11.2C5.10903 11.875 5.12478 12.4375 4.78504 13.0359C4.67424 13.2627 4.50445 13.4555 4.29344 13.5941C4.08243 13.7326 3.83801 13.8118 3.58586 13.8234C2.9109 13.8234 2.53291 13.3172 2.53291 12.5657C2.53291 11.092 3.85586 10.822 5.10903 10.822V11.2ZM6.85719 15.423C6.80125 15.4708 6.73204 15.5003 6.65881 15.5076C6.58562 15.5148 6.51194 15.4995 6.44772 15.4635C6.04997 15.1448 5.7131 14.7569 5.45328 14.3184C4.50155 15.2881 3.82885 15.5783 2.59589 15.5783C1.13798 15.5783 0.00176975 14.6783 0.00176975 12.8784C-0.0192336 12.273 0.14714 11.6759 0.47812 11.1685C0.809139 10.6612 1.28861 10.2683 1.85119 10.0436C2.79164 9.63188 4.10106 9.55538 5.10903 9.44288V9.2179C5.10903 8.80617 5.14052 8.31795 4.89979 7.96022C4.78609 7.81237 4.63828 7.69427 4.46905 7.6159C4.29982 7.53756 4.11414 7.5013 3.92785 7.51024C3.26638 7.51024 2.67915 7.84772 2.53517 8.54966C2.52566 8.62792 2.49121 8.70104 2.43692 8.75819C2.38262 8.81534 2.31135 8.85344 2.23368 8.86689L0.543986 8.69368C0.502693 8.688 0.462979 8.67399 0.427322 8.65242C0.391628 8.63089 0.360742 8.60226 0.336508 8.56833C0.312273 8.53444 0.295215 8.49593 0.286423 8.45516C0.277594 8.41443 0.277217 8.37232 0.285258 8.33144C0.670006 6.29302 2.51041 5.67882 4.15956 5.67882C5.0033 5.67882 6.10573 5.90381 6.76946 6.54277C7.61316 7.33023 7.53216 8.38092 7.53216 9.52385V12.2237C7.53216 13.0337 7.86964 13.3914 8.1869 13.8279C8.24465 13.8886 8.27689 13.9691 8.27689 14.0529C8.27689 14.1367 8.24465 14.2172 8.1869 14.2779C7.83364 14.5749 7.20369 15.1216 6.85719 15.4298V15.423Z" fill="#000008"/>
<path d="M68.814 15.3892H66.9827V14.0055H66.9421C66.5765 14.5322 66.0731 14.9479 65.4865 15.2069C64.891 15.4869 64.2414 15.6328 63.5831 15.6344C62.8887 15.6444 62.2 15.5127 61.5583 15.2474C60.971 15.0021 60.4431 14.6338 60.0103 14.1675C59.5789 13.701 59.2434 13.1545 59.0225 12.5588C58.7861 11.9203 58.6689 11.244 58.6761 10.5632C58.6693 9.87953 58.7869 9.20028 59.0225 8.55853C59.2404 7.96135 59.5763 7.41421 60.0103 6.94988C60.4461 6.48954 60.9733 6.12549 61.5583 5.88119C62.2 5.61589 62.8887 5.4842 63.5831 5.49419C64.2594 5.49032 64.9278 5.63952 65.5384 5.93068C66.108 6.18783 66.5942 6.59933 66.9421 7.11862H66.9827V0H68.814V15.3892ZM63.8082 13.9245C64.262 13.9316 64.7122 13.845 65.1311 13.6703C65.5091 13.5093 65.8487 13.27 66.1279 12.9683C66.4086 12.6626 66.6235 12.3028 66.7599 11.9109C67.0563 11.0353 67.0563 10.0866 66.7599 9.21099C66.6231 8.81929 66.4082 8.45949 66.1279 8.15357C65.8476 7.85622 65.508 7.62094 65.1311 7.46283C64.282 7.12264 63.3344 7.12264 62.4852 7.46283C62.108 7.62037 61.7683 7.85577 61.4884 8.15357C61.2081 8.45949 60.9932 8.81929 60.8564 9.21099C60.56 10.0866 60.56 11.0353 60.8564 11.9109C60.9928 12.3028 61.2077 12.6626 61.4884 12.9683C61.7683 13.2664 62.108 13.5018 62.4852 13.659C62.9034 13.8375 63.3535 13.9279 63.8082 13.9245ZM72.4477 5.73943V7.22435H72.4883C72.6115 6.96525 72.7765 6.72813 72.9764 6.52238C73.1766 6.31317 73.4036 6.13158 73.6515 5.98241C73.91 5.83005 74.1866 5.71065 74.4748 5.62694C74.7667 5.5392 75.0699 5.49445 75.375 5.49419C75.6512 5.49013 75.9262 5.53116 76.1892 5.6157L76.1084 7.58885C75.9597 7.54834 75.809 7.5146 75.6583 7.48759C75.5099 7.46039 75.3592 7.44686 75.2082 7.44709C74.3083 7.44709 73.623 7.69834 73.1518 8.2008C72.681 8.70327 72.4432 9.48324 72.4387 10.5407V15.3892H70.6074V5.73943H72.4477ZM77.2849 2.85957C77.2815 2.6359 77.3337 2.41486 77.4366 2.21632C77.54 2.01778 77.6906 1.84799 77.8759 1.7222C78.0607 1.5964 78.2742 1.51855 78.4966 1.49567C78.7194 1.47279 78.9441 1.50555 79.1507 1.59107C79.3574 1.67655 79.5396 1.81207 79.6809 1.98547C79.8225 2.15887 79.9184 2.36466 79.9604 2.58439C80.0029 2.80411 79.9897 3.03083 79.9225 3.2442C79.8552 3.45758 79.7357 3.6509 79.5753 3.80679C79.3863 3.99041 79.1477 4.1147 78.8888 4.16429C78.63 4.21393 78.3624 4.18669 78.119 4.08599C77.8755 3.98526 77.6666 3.81546 77.5186 3.59754C77.3701 3.37962 77.289 3.12307 77.2849 2.85957ZM77.7124 5.73943H79.5437V15.3892H77.7124V5.73943ZM80.7138 5.73943H82.831L85.7223 13.1281L88.4895 5.73943H90.4448L86.6582 15.3892H84.633L80.7138 5.73943ZM92.2694 11.2359C92.2641 11.636 92.3584 12.0311 92.5436 12.3856C92.7229 12.7265 92.9682 13.0279 93.2662 13.272C93.5754 13.5226 93.9278 13.7154 94.3054 13.8413C94.6984 13.9775 95.1114 14.0467 95.5273 14.046C96.0499 14.0586 96.5651 13.9212 97.0122 13.65C97.4541 13.3666 97.8463 13.0124 98.1732 12.6016L99.5566 13.659C98.5399 14.9745 97.1148 15.6329 95.282 15.6344C94.5745 15.6443 93.8722 15.5127 93.2166 15.2474C92.6214 15.0076 92.0845 14.6432 91.6415 14.1787C91.2083 13.7139 90.8724 13.1669 90.6541 12.5701C90.4211 11.927 90.3058 11.2471 90.314 10.5632C90.3073 9.87686 90.435 9.19581 90.6898 8.55853C90.928 7.95958 91.2812 7.41308 91.7294 6.94988C92.1765 6.49048 92.7123 6.12688 93.3041 5.88119C93.9357 5.61923 94.6139 5.48761 95.2977 5.49419C96.0458 5.47217 96.789 5.6263 97.4665 5.94416C98.0312 6.22239 98.5275 6.62187 98.9201 7.11411C99.3008 7.59674 99.5814 8.15053 99.7456 8.74302C99.9143 9.34272 100 9.96271 100 10.5857V11.2359H92.2694ZM98.0515 9.7712C98.0436 9.38871 97.9782 9.00952 97.858 8.64627C97.7494 8.31788 97.5732 8.0159 97.3406 7.75984C97.0994 7.50217 96.8044 7.30089 96.4768 7.17036C96.0898 7.02202 95.678 6.95093 95.2639 6.96112C94.8393 6.95578 94.4189 7.04254 94.0312 7.21537C93.6761 7.37269 93.3552 7.5973 93.0862 7.87681C92.8337 8.13869 92.6304 8.44345 92.4854 8.77676C92.3475 9.08797 92.2746 9.4241 92.2716 9.76448H98.0537L98.0515 9.7712Z" fill="#3A89F6"/>
</svg>
