<svg width="100" height="20" viewBox="0 0 100 20" fill="none" xmlns="http://www.w3.org/2000/svg">
<path d="M55.8401 11.2339C55.6467 11.2235 55.4945 11.0618 55.4919 10.8641V0.554597C55.5127 0.358799 55.6769 0.212049 55.8696 0.216846H57.6938C57.8599 0.222329 58.0022 0.340003 58.0419 0.504767V2.08143H58.0802C58.6302 0.671878 59.4013 0 60.7589 0C61.6397 0 62.4995 0.325319 63.0547 1.21404C63.5682 2.03884 63.5682 3.42705 63.5682 4.42424V10.9103C63.5395 11.0996 63.378 11.2378 63.1905 11.2339H61.2132C61.0358 11.2261 60.8893 11.0899 60.8651 10.9103V5.31297C60.8651 5.22525 60.8659 5.1345 60.8667 5.0415C60.8762 3.93935 60.8882 2.53646 59.6345 2.53646C59.1298 2.56035 58.685 2.88263 58.4962 3.36126C58.2212 3.99045 58.1846 4.61975 58.1846 5.31649V10.8641C58.1771 11.0733 58.0067 11.2378 57.8017 11.2339H55.8401Z" fill="#232F3E"/>
<path fill-rule="evenodd" clip-rule="evenodd" d="M49.497 0.0142411C52.416 0.0142411 53.9947 2.5739 53.9947 5.82669C53.9947 8.9711 52.254 11.465 49.497 11.465C46.6338 11.465 45.0742 8.90531 45.0742 5.71832C45.0742 2.53122 46.653 0.0142411 49.497 0.0142411ZM49.5162 2.11887C48.0662 2.11887 47.974 4.13451 47.974 5.393V5.4347C47.9738 6.70984 47.9734 9.339 49.497 9.339C51.0375 9.339 51.0948 7.17045 51.0948 5.84803C51.0948 4.98065 51.0583 3.93901 50.8007 3.11597C50.5797 2.40503 50.1393 2.11887 49.5162 2.11887Z" fill="#232F3E"/>
<path d="M11.196 11.2552C11.0136 11.2455 10.8657 11.1011 10.8479 10.9156V0.606104C10.8545 0.399537 11.0215 0.236143 11.2238 0.238199H13.0567C13.2445 0.248772 13.3944 0.401886 13.4047 0.593669V1.93929H13.4413C13.9182 0.636354 14.8181 0.0302612 16.0296 0.0302612C17.241 0.0302612 18.0295 0.636354 18.5812 1.93929C18.9496 0.936609 19.8189 0.214703 20.8551 0.0507228C21.8915 -0.11316 22.9338 0.306336 23.5819 1.14827C24.1166 1.89044 24.0995 2.92415 24.0834 3.89531C24.0807 4.05919 24.078 4.22121 24.078 4.37981V10.8836C24.0762 10.9844 24.0351 11.0802 23.9639 11.1499C23.8926 11.2197 23.7972 11.2575 23.6986 11.2552H21.7335C21.5401 11.2449 21.3878 11.0831 21.3853 10.8855V5.42136C21.3853 5.33883 21.3866 5.2326 21.3882 5.11199C21.3945 4.5991 21.4042 3.82462 21.3296 3.49098C21.1834 2.79776 20.743 2.60226 20.1738 2.60226C19.6521 2.61851 19.1902 2.95058 18.999 3.44654C18.8115 3.93182 18.8131 4.71276 18.8143 5.29154L18.8145 5.42136V10.8836C18.8127 10.9841 18.7718 11.0796 18.701 11.1493C18.6302 11.219 18.5351 11.2571 18.4368 11.2552H16.4664C16.2736 11.244 16.1217 11.0827 16.1183 10.8855V5.42136C16.1183 5.30975 16.1199 5.19286 16.1217 5.07303C16.1374 3.95845 16.1569 2.5774 14.8999 2.5774C13.5403 2.5774 13.5414 4.14818 13.5423 5.33589V10.8836C13.5404 10.9844 13.4994 11.0802 13.4281 11.1499C13.357 11.2197 13.2615 11.2575 13.1628 11.2552H11.196Z" fill="#232F3E"/>
<path fill-rule="evenodd" clip-rule="evenodd" d="M7.31216 11.3813C7.46146 11.4671 7.64746 11.448 7.77689 11.3333L7.79255 11.3368C8.18415 10.9796 8.89783 10.3468 9.2999 10.0038C9.45311 9.87041 9.42521 9.64828 9.2999 9.4705C9.26162 9.41675 9.22314 9.36398 9.18487 9.31161C8.86258 8.87038 8.55665 8.45147 8.55665 7.60944V4.48285C8.55665 4.38182 8.55714 4.28147 8.55763 4.18181C8.5636 2.97442 8.56908 1.86953 7.68643 1.02555C6.93447 0.286119 5.68469 0.02659 4.72744 0.02659C2.8563 0.02659 0.767595 0.739391 0.330712 3.09993C0.31259 3.19548 0.33362 3.29435 0.388884 3.37365C0.444138 3.45295 0.528801 3.50562 0.623126 3.51942L2.51336 3.73098C2.69799 3.7024 2.84073 3.55075 2.86148 3.36122C3.02517 2.54885 3.69353 2.15608 4.44373 2.15608C4.85098 2.15608 5.307 2.30714 5.54724 2.67691C5.79375 3.04814 5.78993 3.54077 5.78651 3.98327C5.78611 4.03437 5.78572 4.08499 5.78572 4.13443V4.39395C5.60696 4.41461 5.41968 4.43409 5.22672 4.45416C4.18889 4.56244 2.98836 4.68755 2.08867 5.0907C0.870291 5.63463 0 6.74206 0 8.37197C0 10.4588 1.28806 11.5022 2.94333 11.5022C4.34103 11.5022 5.10513 11.1662 6.18603 10.0428C6.23811 10.1203 6.2851 10.1919 6.32945 10.2596C6.58732 10.6523 6.75521 10.9081 7.31216 11.3813ZM5.79444 6.53539L5.79434 6.00615C4.37236 6.00615 2.8702 6.31718 2.8702 8.02718C2.8702 8.89818 3.31055 9.48469 4.06427 9.48469C4.61779 9.48469 5.11384 9.13637 5.42712 8.5711C5.79571 7.90167 5.79512 7.27473 5.79444 6.53539Z" fill="#232F3E"/>
<path fill-rule="evenodd" clip-rule="evenodd" d="M35.0711 9.46343C35.0328 9.40958 34.9942 9.35682 34.9558 9.30434C34.6336 8.86321 34.3278 8.4445 34.3278 7.60423V4.47578C34.3278 4.36946 34.3284 4.26382 34.329 4.15907L34.3291 4.15565C34.3358 2.95443 34.3421 1.85816 33.4576 1.01858C32.7039 0.279148 31.4541 0.0196188 30.4986 0.0196188C28.6275 0.0196188 26.5388 0.730558 26.1001 3.09286C26.0815 3.18899 26.1024 3.28866 26.1582 3.36835C26.2139 3.44813 26.2992 3.5008 26.3943 3.51412L28.3002 3.72391C28.4845 3.69474 28.6271 3.54339 28.6483 3.35415C28.8137 2.54189 29.4786 2.14901 30.2288 2.14901C30.6343 2.14901 31.099 2.30193 31.3323 2.6716C31.5805 3.04146 31.5767 3.53429 31.5732 3.97698C31.5728 4.02789 31.5724 4.07811 31.5724 4.12736V4.3816C31.3975 4.40147 31.2142 4.42037 31.0255 4.43985C29.9846 4.54724 28.7771 4.67187 27.8755 5.07658C26.6431 5.62051 25.7781 6.72784 25.7781 8.35962C25.7781 10.4447 27.0662 11.4881 28.7214 11.4881C30.1139 11.4881 30.8832 11.1521 31.9624 10.0287C32.0137 10.1051 32.0601 10.1755 32.1037 10.242C32.3653 10.6399 32.531 10.892 33.0903 11.3672C33.2395 11.4524 33.4248 11.434 33.555 11.321C33.9466 10.9655 34.6603 10.3309 35.0623 9.98777C35.2312 9.8652 35.2033 9.64836 35.0711 9.46343ZM31.207 8.56227C30.8954 9.12577 30.3976 9.4741 29.8458 9.4741C29.0922 9.4741 28.6518 8.88759 28.6518 8.01834C28.6518 6.30658 30.1539 5.99732 31.576 5.99732V6.5107C31.5765 7.25933 31.5769 7.88921 31.207 8.56227Z" fill="#232F3E"/>
<path d="M36.733 2.03886V0.570573C36.7284 0.470129 36.7658 0.372328 36.8358 0.301449C36.9058 0.230668 37.0019 0.193467 37.1003 0.199145H43.563C43.6613 0.195718 43.7566 0.23341 43.8269 0.303604C43.8973 0.373797 43.9365 0.470227 43.9355 0.570573V1.83445C43.9355 2.04591 43.7614 2.32325 43.4499 2.76047L40.101 7.64151C41.3438 7.61126 42.6579 7.80148 43.7876 8.45025C43.9962 8.56391 44.129 8.78301 44.1357 9.02443V10.6029C44.1357 10.8197 43.9041 11.0703 43.6587 10.9405C41.5149 9.81526 38.9702 9.81995 36.8305 10.953C36.6059 11.0756 36.3709 10.8286 36.3709 10.6117V9.1097C36.3504 8.7557 36.4341 8.40346 36.6112 8.09831L40.4909 2.41029H37.1072C37.0086 2.41421 36.9128 2.37671 36.8421 2.30651C36.7714 2.23632 36.732 2.1395 36.733 2.03886Z" fill="#232F3E"/>
<path fill-rule="evenodd" clip-rule="evenodd" d="M70.8923 1.50912C71.3862 1.06427 71.9507 0.708405 72.5615 0.456805C73.1385 0.221946 73.754 0.101335 74.3752 0.101335C74.9926 0.0895869 75.6051 0.215778 76.1698 0.471C76.7018 0.720153 77.1679 1.09559 77.5291 1.566C77.9225 2.08711 78.2132 2.68107 78.3855 3.31506C78.5942 4.06643 78.6951 4.84482 78.6849 5.62576C78.6944 6.42344 78.5864 7.21789 78.3646 7.98278C78.1789 8.63175 77.8748 9.23911 77.4682 9.77276C77.0906 10.2578 76.6112 10.6503 76.0653 10.921C75.4916 11.1929 74.8648 11.3273 74.2324 11.3138C73.0508 11.3338 71.907 10.8882 71.0385 10.0696V15.0039C71.0551 15.12 71.0171 15.2373 70.9358 15.3203C70.8545 15.4032 70.7397 15.4421 70.626 15.4251H69.4076C69.2939 15.4421 69.179 15.4032 69.0978 15.3203C69.0166 15.2373 68.9785 15.12 68.9951 15.0039V0.835477C68.9792 0.719467 69.0176 0.602674 69.0986 0.519949C69.1797 0.437127 69.294 0.397968 69.4076 0.414122H70.3144C70.4328 0.402863 70.5505 0.441435 70.6402 0.521027C70.73 0.600618 70.784 0.71418 70.7896 0.835477L70.8923 1.50912ZM73.799 1.78284C72.7997 1.79087 71.8301 2.13097 71.0367 2.75155V8.61736C71.9164 9.29276 72.8232 9.62992 73.7573 9.62875C75.6533 9.62875 76.6014 8.32523 76.6014 5.71818C76.6014 3.11123 75.6673 1.7988 73.799 1.78108V1.78284Z" fill="#232F3E"/>
<path fill-rule="evenodd" clip-rule="evenodd" d="M81.2589 2.3019L81.4138 2.24854C82.3941 1.94016 83.413 1.77853 84.4388 1.76864C85.2639 1.76982 85.8412 1.9244 86.1708 2.23258C86.5003 2.54067 86.6651 3.07393 86.6651 3.83225V5.21517C85.8162 4.99274 84.9445 4.8734 84.0681 4.8597C82.859 4.85852 81.8971 5.16368 81.1822 5.77515C80.4675 6.38653 80.11 7.20418 80.11 8.22811C80.1124 9.18203 80.4025 9.94339 80.9804 10.5122C81.5583 11.081 82.3414 11.3654 83.3301 11.3654C83.9414 11.3627 84.5468 11.2421 85.1142 11.0098C85.7126 10.7713 86.2666 10.4298 86.7521 10.0003L86.8565 10.6953C86.8617 10.8107 86.9131 10.9189 86.9987 10.9945C87.0843 11.0701 87.1964 11.1065 87.309 11.0952H88.1968C88.3103 11.1113 88.4247 11.0722 88.5057 10.9894C88.5868 10.9066 88.6251 10.7898 88.6093 10.6739V3.48216C88.6081 2.33029 88.2983 1.48121 87.6798 0.934935C87.0613 0.388659 86.0994 0.115522 84.7939 0.115522C84.1442 0.115522 83.496 0.175045 82.8567 0.293307C82.2987 0.384353 81.7527 0.540012 81.2292 0.757249C81.1026 0.80101 80.9893 0.877567 80.9003 0.979382C80.8326 1.10459 80.8036 1.24772 80.8168 1.38997V1.95347C80.8168 2.20762 80.9108 2.33391 81.0848 2.33391C81.1441 2.33293 81.2029 2.32216 81.2589 2.3019ZM85.2483 9.51675C84.7931 9.69042 84.312 9.78244 83.8262 9.78871C83.2901 9.78988 82.8775 9.64646 82.5886 9.35854C82.2997 9.07062 82.1553 8.66003 82.1553 8.12678C82.1541 6.905 82.931 6.29411 84.4858 6.29411C84.8543 6.29489 85.2223 6.31986 85.5877 6.36881C85.9517 6.41561 86.3131 6.48208 86.6702 6.56784V8.71691C86.2385 9.05525 85.759 9.32487 85.2483 9.51675Z" fill="#232F3E"/>
<path d="M94.0301 15.0448C94.5167 14.623 94.9474 13.9279 95.3195 12.9598L99.8551 1.17137C99.9305 1.0117 99.9794 0.840573 100 0.664845C100 0.497732 99.904 0.412364 99.7112 0.412364H98.557C98.3984 0.396896 98.2388 0.433608 98.1027 0.517312C97.9862 0.650063 97.902 0.808951 97.857 0.981155L95.0727 9.14885L92.1847 0.981155C92.1397 0.808951 92.0555 0.650063 91.939 0.517312C91.8029 0.433608 91.6433 0.396896 91.4848 0.412364H90.2473C90.0564 0.412364 89.9605 0.497732 89.9605 0.664845C89.98 0.840573 90.028 1.0118 90.1034 1.17137L94.0752 11.1983L93.6836 12.2648C93.4506 12.939 93.1892 13.4024 92.9004 13.6547C92.5518 13.9271 92.1191 14.0616 91.6815 14.0334C91.4955 14.0373 91.3095 14.023 91.1264 13.9907C91.0246 13.9684 90.9209 13.9547 90.8171 13.9498C90.6095 13.9498 90.5067 14.0831 90.5067 14.3498V14.8973C90.495 15.0481 90.5312 15.1988 90.6095 15.3274C90.6947 15.4296 90.8112 15.5001 90.9404 15.5282C91.3232 15.6316 91.7187 15.6812 92.1152 15.6758C92.9043 15.6769 93.5426 15.4667 94.0301 15.0448Z" fill="#232F3E"/>
<path fill-rule="evenodd" clip-rule="evenodd" d="M39.9671 17.8105C40.4145 16.6747 41.41 14.1293 40.9366 13.5125H40.9401C40.4687 12.8944 37.823 13.2188 36.6329 13.3647L36.6304 13.3649C36.2684 13.4094 36.2127 13.0877 36.5382 12.8549C38.6512 11.3386 42.1132 11.7723 42.5153 12.2842C42.9174 12.7962 42.4056 16.3405 40.4266 18.0327C40.1221 18.2922 39.8314 18.1536 39.9671 17.8105ZM25.7484 19.5631C30.3504 19.5631 35.7097 18.079 39.4014 15.2972V15.3025C40.0124 14.8332 39.4885 14.1435 38.8653 14.4137C34.8356 16.1495 30.51 17.0556 26.1365 17.08C20.0689 17.08 14.1996 15.3807 9.45134 12.5598C9.03537 12.3127 8.72552 12.7482 9.07364 13.0664C13.6449 17.2783 19.5915 19.5952 25.7484 19.5631Z" fill="#FF9900"/>
</svg>
